HIERARCHY
ROOT Hips
{
	OFFSET 0.00000 0.00000 0.00000
	CHANNELS 6 Xposition Yposition Zposition Zrotation Yrotation Xrotation 
	JOINT LHipJoint
	{
		OFFSET 0 0 0
		CHANNELS 3 Zrotation Yrotation Xrotation
		JOINT LeftUpLeg
		{
			OFFSET 1.39187 -1.60231 0.69152
			CHANNELS 3 Zrotation Yrotation Xrotation
			JOINT LeftLeg
			{
				OFFSET 2.43314 -6.68499 0.00000
				CHANNELS 3 Zrotation Yrotation Xrotation
				JOINT LeftFoot
				{
					OFFSET 2.32059 -6.37578 0.00000
					CHANNELS 3 Zrotation Yrotation Xrotation
					JOINT LeftToeBase
					{
						OFFSET 0.23021 -0.63250 1.71305
						CHANNELS 3 Zrotation Yrotation Xrotation
						End Site
						{
							OFFSET 0.00000 -0.00000 0.91647
						}
					}
				}
			}
		}
	}
	JOINT RHipJoint
	{
		OFFSET 0 0 0
		CHANNELS 3 Zrotation Yrotation Xrotation
		JOINT RightUpLeg
		{
			OFFSET -1.19407 -1.60231 0.69152
			CHANNELS 3 Zrotation Yrotation Xrotation
			JOINT RightLeg
			{
				OFFSET -2.44411 -6.71513 0.00000
				CHANNELS 3 Zrotation Yrotation Xrotation
				JOINT RightFoot
				{
					OFFSET -2.31924 -6.37207 0.00000
					CHANNELS 3 Zrotation Yrotation Xrotation
					JOINT RightToeBase
					{
						OFFSET -0.19473 -0.53502 1.87724
						CHANNELS 3 Zrotation Yrotation Xrotation
						End Site
						{
							OFFSET -0.00000 -0.00000 0.98293
						}
					}
				}
			}
		}
	}
	JOINT LowerBack
	{
		OFFSET 0 0 0
		CHANNELS 3 Zrotation Yrotation Xrotation
		JOINT Spine
		{
			OFFSET -0.01120 1.87307 0.09613
			CHANNELS 3 Zrotation Yrotation Xrotation
			JOINT Spine1
			{
				OFFSET 0.01099 1.87818 0.04834
				CHANNELS 3 Zrotation Yrotation Xrotation
				JOINT Neck
				{
					OFFSET 0 0 0
					CHANNELS 3 Zrotation Yrotation Xrotation
					JOINT Neck1
					{
						OFFSET 0.01702 1.40324 -0.12579
						CHANNELS 3 Zrotation Yrotation Xrotation
						JOINT Head
						{
							OFFSET -0.04239 1.38587 -0.01614
							CHANNELS 3 Zrotation Yrotation Xrotation
							End Site
							{
								OFFSET -0.02510 1.47031 -0.00154
							}
						}
					}
				}
				JOINT LeftShoulder
				{
					OFFSET 0 0 0
					CHANNELS 3 Zrotation Yrotation Xrotation
					JOINT LeftArm
					{
						OFFSET 2.95699 0.62343 0.11653
						CHANNELS 3 Zrotation Yrotation Xrotation
						JOINT LeftForeArm
						{
							OFFSET 4.68382 -0.00000 -0.00000
							CHANNELS 3 Zrotation Yrotation Xrotation
							JOINT LeftHand
							{
								OFFSET 2.98124 -0.00000 -0.00000
								CHANNELS 3 Zrotation Yrotation Xrotation
								JOINT LeftFingerBase
								{
									OFFSET 0 0 0
									CHANNELS 3 Zrotation Yrotation Xrotation
									JOINT LeftHandIndex1
									{
										OFFSET 0.70759 -0.00000 0.00000
										CHANNELS 3 Zrotation Yrotation Xrotation
										End Site
										{
											OFFSET 0.57048 -0.00000 0.00000
										}
									}
								}
								JOINT LThumb
								{
									OFFSET 0 0 0
									CHANNELS 3 Zrotation Yrotation Xrotation
									End Site
									{
										OFFSET 0.57919 -0.00000 0.57919
									}
								}
							}
						}
					}
				}
				JOINT RightShoulder
				{
					OFFSET 0 0 0
					CHANNELS 3 Zrotation Yrotation Xrotation
					JOINT RightArm
					{
						OFFSET -2.99027 0.88714 -0.02793
						CHANNELS 3 Zrotation Yrotation Xrotation
						JOINT RightForeArm
						{
							OFFSET -4.75876 -0.00000 -0.00000
							CHANNELS 3 Zrotation Yrotation Xrotation
							JOINT RightHand
							{
								OFFSET -2.93293 -0.00000 -0.00000
								CHANNELS 3 Zrotation Yrotation Xrotation
								JOINT RightFingerBase
								{
									OFFSET 0 0 0
									CHANNELS 3 Zrotation Yrotation Xrotation
									JOINT RightHandIndex1
									{
										OFFSET -0.83175 -0.00000 0.00000
										CHANNELS 3 Zrotation Yrotation Xrotation
										End Site
										{
											OFFSET -0.67058 -0.00000 0.00000
										}
									}
								}
								JOINT RThumb
								{
									OFFSET 0 0 0
									CHANNELS 3 Zrotation Yrotation Xrotation
									End Site
									{
										OFFSET -0.68082 -0.00000 0.68082
									}
								}
							}
						}
					}
				}
			}
		}
	}
}
MOTION
Frames: 14
Frame Time: .0083333
3.9619 27.4227 -0.5629 164.4020 101.2150 185.2510 0.0000 0.0000 0.0000 -12.1738 -23.6534 -31.9670 2.2415 9.3520 26.9028 -0.3958 16.3632 -18.8604 1.0295 6.4539 18.1073 0.0000 0.0000 0.0000 10.4334 24.1132 -48.2415 -6.5289 -14.9220 47.0693 0.0355 9.3671 12.7046 -0.5989 4.9541 -13.7777 -5.1659 1.9390 -5.2504 -1.7169 2.9488 -0.6236 1.3259 1.4453 2.1311 3.7404 6.3100 -5.0062 -1.7464 9.3469 23.4659 -0.3614 4.7836 8.3567 0.0000 -0.0000 0.0000 -84.1115 14.6592 5.0654 12.5289 -20.5931 -2.2849 -0.0000 -0.0000 26.1987 14.9654 22.5626 5.8559 -7.1250 0.0000 -0.0000 -14.4155 52.6765 -2.7696 0.0000 -0.0000 0.0000 88.5796 -16.8252 18.4152 -45.4642 50.9939 -22.5989 0.0000 0.0000 9.7425 -39.0072 18.2614 -14.2417 7.1250 -0.0000 -0.0000 -6.9607 -7.1126 -6.0915
3.9511 27.4160 -0.5666 164.3160 101.2920 185.2020 0.0000 0.0000 0.0000 -12.1368 -23.5153 -32.1411 2.2544 9.3769 26.9817 -0.3971 16.3410 -18.8030 1.0342 6.4683 18.1493 0.0000 0.0000 0.0000 10.5571 24.0340 -48.1805 -6.5054 -14.9008 46.9779 0.0454 9.0156 11.9830 -0.6111 5.0036 -13.9188 -5.1328 1.9885 -5.1178 -1.7670 3.0044 -0.6425 1.2534 1.4761 2.0385 4.0499 6.3444 -4.7538 -2.1643 9.4537 23.3231 -0.5508 4.8262 8.3032 0.0000 -0.0000 0.0000 -84.4556 14.9349 3.6020 12.1721 -20.0622 -2.1610 -0.0000 -0.0000 27.2698 13.9807 22.8913 5.5316 -7.1250 0.0000 -0.0000 -15.5323 52.8249 -3.0495 0.0000 -0.0000 0.0000 88.7833 -16.9021 18.4486 -44.3535 50.4478 -21.7391 0.0000 0.0000 9.7560 -38.8476 18.2559 -14.1601 7.1250 -0.0000 -0.0000 -6.8620 -7.1613 -5.9973
3.9439 27.4153 -0.5690 164.3620 101.3490 185.2070 0.0000 0.0000 0.0000 -12.1669 -23.4043 -32.2027 2.2737 9.4142 27.0999 -0.4004 16.3765 -18.8243 1.0181 6.4193 18.0060 0.0000 0.0000 0.0000 10.7493 23.8667 -47.9681 -6.4876 -14.8848 46.9088 0.0870 8.9036 10.9180 -0.7144 5.4017 -15.0580 -5.1450 2.1020 -4.9110 -1.8400 3.1434 -0.6511 1.1841 1.5489 1.9093 3.7181 6.1676 -5.0856 -1.7344 9.1708 23.7040 -0.3621 4.7018 8.4447 -0.0000 0.0000 0.0000 -84.6370 15.2792 2.6785 11.9136 -19.6749 -2.0731 -0.0000 -0.0000 27.9068 12.9318 23.1958 5.1677 -7.1250 0.0000 -0.0000 -16.7043 52.9351 -3.3355 -0.0000 0.0000 0.0000 89.0797 -16.9398 18.2799 -43.2716 49.8931 -20.9083 0.0000 0.0000 9.8777 -38.4057 17.7773 -13.6063 7.1250 -0.0000 -0.0000 -6.6724 -7.8514 -5.7385
3.9380 27.4141 -0.5715 164.1370 101.3860 184.9650 0.0000 0.0000 0.0000 -12.1136 -23.3553 -32.2759 2.2907 9.4471 27.2040 -0.4143 16.4460 -18.7699 1.0117 6.3997 17.9486 0.0000 0.0000 0.0000 10.9957 23.7030 -47.7481 -6.4733 -14.8718 46.8530 0.1220 8.6755 9.6497 -0.8562 5.9010 -16.4975 -5.0539 2.2861 -4.6572 -1.9480 3.3636 -0.7972 1.0191 1.6693 1.6158 4.1159 6.0819 -4.3959 -1.8580 9.0669 23.5716 -0.5053 4.6927 8.2970 0.0000 -0.0000 0.0000 -84.6501 15.8415 2.0348 11.6947 -19.3452 -2.0000 -0.0000 -0.0000 28.4222 11.8507 23.7624 4.8329 -7.1250 0.0000 -0.0000 -18.0441 53.2871 -3.7749 0.0000 -0.0000 0.0000 89.4332 -17.3123 18.0351 -42.3236 49.3878 -20.1858 0.0000 0.0000 9.7970 -37.8008 17.4733 -13.1112 7.1250 -0.0000 -0.0000 -6.3448 -8.3664 -5.3881
3.9324 27.4109 -0.5731 163.9710 101.3880 184.8200 0.0000 0.0000 0.0000 -12.0606 -23.3276 -32.3797 2.3070 9.4782 27.3028 -0.4253 16.4906 -18.7071 1.0330 6.4648 18.1391 0.0000 0.0000 0.0000 11.2055 23.5073 -47.5795 -6.4658 -14.8651 46.8239 0.1405 8.3175 8.3914 -1.0113 6.3986 -17.9453 -5.1837 2.3080 -4.3988 -1.8898 3.3801 -0.7547 1.1402 1.6780 1.5030 3.4581 6.0252 -5.4044 -1.1270 8.9004 24.2124 -0.1220 4.6098 8.6262 0.0000 -0.0000 0.0000 -85.0950 16.0273 1.0210 11.5561 -19.1357 -1.9543 -0.0000 -0.0000 28.8611 10.9279 24.4386 4.5670 -7.1250 0.0000 -0.0000 -19.3041 53.7631 -4.2828 0.0000 -0.0000 0.0000 89.3230 -17.3057 18.2830 -41.2260 48.7797 -19.3564 0.0000 0.0000 10.1533 -37.3471 17.1873 -12.7072 7.1250 -0.0000 -0.0000 -6.1063 -8.8175 -5.1281
3.9275 27.4078 -0.5747 163.7760 101.3540 184.6900 0.0000 0.0000 0.0000 -11.9974 -23.3045 -32.5511 2.3273 9.5169 27.4262 -0.4286 16.5260 -18.7299 1.0379 6.4794 18.1819 0.0000 0.0000 0.0000 11.4205 23.2300 -47.4580 -6.4652 -14.8644 46.8212 0.1561 8.1010 7.3353 -1.1522 6.8155 -19.1700 -5.1613 2.2913 -4.3504 -1.9070 3.3533 -0.7724 1.1061 1.6662 1.4616 2.9929 5.9849 -5.4806 -0.6148 8.7846 24.2238 0.1142 4.5629 8.5930 0.0000 -0.0000 0.0000 -85.4594 16.4164 -0.0259 11.4807 -19.0214 -1.9297 -0.0000 -0.0000 29.3436 10.0407 24.9227 4.2670 -7.1250 0.0000 -0.0000 -20.4406 54.0562 -4.7006 0.0000 -0.0000 0.0000 89.3722 -17.3928 18.5399 -40.2763 48.2327 -18.6450 0.0000 0.0000 10.4834 -36.4808 16.3793 -11.7785 7.1250 -0.0000 -0.0000 -5.6863 -9.9784 -4.6385
3.9222 27.4044 -0.5767 163.2450 101.2820 184.2070 0.0000 0.0000 0.0000 -11.8793 -23.2787 -32.7127 2.3464 9.5531 27.5413 -0.4321 16.5611 -18.7476 1.0482 6.5105 18.2729 0.0000 0.0000 0.0000 11.6900 22.9637 -47.3023 -6.4704 -14.8692 46.8418 0.1638 7.9349 6.5604 -1.1885 6.9182 -19.4731 -5.0453 2.3107 -4.2346 -1.9155 3.3632 -0.8355 1.0263 1.6755 1.3384 3.2212 5.9052 -5.1077 -1.0174 8.7364 23.9789 -0.0797 4.5281 8.4702 0.0000 -0.0000 0.0000 -85.7209 16.7781 -0.9577 11.3496 -18.8221 -1.8872 -0.0000 -0.0000 29.7962 9.0839 25.2396 3.9002 -7.1250 0.0000 -0.0000 -21.5571 54.1753 -5.0399 0.0000 -0.0000 0.0000 89.4829 -17.4863 18.6923 -39.3696 47.6920 -17.9717 0.0000 0.0000 10.6207 -35.4836 15.5800 -10.8388 7.1250 -0.0000 -0.0000 -5.1651 -11.1369 -4.0873
3.9176 27.4023 -0.5782 162.8240 101.2070 183.8200 0.0000 0.0000 0.0000 -11.7864 -23.2796 -32.8408 2.3636 9.5856 27.6450 -0.4472 16.6551 -18.7235 1.0686 6.5717 18.4525 0.0000 0.0000 0.0000 11.9159 22.7182 -47.1484 -6.4816 -14.8794 46.8855 0.1597 7.6203 5.8294 -1.1378 6.7740 -19.0475 -4.9385 2.3487 -4.1082 -1.9427 3.3985 -0.9036 0.9327 1.6976 1.2035 3.1448 5.8061 -5.1639 -0.9673 8.6258 24.2797 -0.0520 4.4779 8.5746 -0.0000 -0.0000 0.0000 -85.8777 17.1808 -1.2603 11.2705 -18.7017 -1.8617 -0.0000 -0.0000 29.6923 8.2472 25.4986 3.5704 -7.1250 0.0000 -0.0000 -22.5252 54.2600 -5.3318 -0.0000 -0.0000 0.0000 89.5611 -17.5513 18.8672 -38.3829 47.0821 -17.2455 0.0000 0.0000 10.7972 -34.7454 15.3402 -10.3977 7.1250 -0.0000 -0.0000 -4.7181 -11.5663 -3.6891
3.9123 27.3997 -0.5793 162.8600 101.1220 183.9290 0.0000 0.0000 0.0000 -11.7668 -23.2975 -33.0202 2.3810 9.6183 27.7493 -0.4541 16.6947 -18.7065 1.0748 6.5900 18.5063 0.0000 0.0000 0.0000 12.0424 22.4128 -47.0714 -6.4984 -14.8945 46.9508 0.1492 7.2285 5.1589 -1.1446 6.7936 -19.1054 -5.0299 2.3509 -4.4635 -1.8959 3.4354 -0.7285 1.0554 1.7042 1.5726 2.8062 5.7834 -5.1727 -0.7103 8.5799 24.2839 0.0837 4.4514 8.5480 -0.0000 -0.0000 0.0000 -86.2618 17.1473 -1.8913 11.2187 -18.6227 -1.8452 -0.0000 -0.0000 29.8582 7.2440 25.7345 3.1590 -7.1250 0.0000 -0.0000 -23.6414 54.2903 -5.6368 -0.0000 -0.0000 0.0000 89.4170 -17.2206 19.1318 -37.3294 46.4056 -16.4782 0.0000 0.0000 10.8106 -33.9137 15.1086 -9.9396 7.1250 -0.0000 -0.0000 -4.2042 -11.9956 -3.2476
3.9044 27.3941 -0.5789 162.8260 101.0190 183.9710 0.0000 0.0000 0.0000 -11.7735 -23.2067 -33.2245 2.3959 9.6461 27.8381 -0.4395 16.5883 -18.7004 1.0828 6.6138 18.5762 0.0000 0.0000 0.0000 12.2068 22.0977 -46.9747 -6.5241 -14.9176 47.0504 0.1444 6.9794 4.5527 -1.2220 7.0114 -19.7491 -5.0677 2.4257 -4.5696 -1.9493 3.5508 -0.5981 1.0365 1.7553 1.7613 3.6444 5.8319 -4.7911 -1.5796 8.7159 23.8131 -0.3503 4.5082 8.4024 0.0000 -0.0000 0.0000 -86.3929 16.8918 -2.7264 11.0776 -18.4071 -1.8004 -0.0000 -0.0000 30.5300 6.2460 25.8886 2.7359 -7.1250 0.0000 -0.0000 -24.7004 54.2456 -5.8856 0.0000 -0.0000 0.0000 89.5465 -16.8836 19.1550 -36.3553 45.7560 -15.7765 0.0000 0.0000 10.8317 -33.2149 14.9105 -9.5630 7.1250 -0.0000 -0.0000 -3.7694 -12.3537 -2.8821
3.9008 27.3899 -0.5772 162.1040 100.8820 183.3390 0.0000 0.0000 0.0000 -11.6398 -23.1390 -33.3956 2.4079 9.6685 27.9096 -0.4303 16.5409 -18.7349 1.1214 6.7267 18.9082 0.0000 0.0000 0.0000 12.5284 21.7580 -46.8491 -6.5601 -14.9500 47.1903 0.1457 6.8772 3.9118 -1.2877 7.1904 -20.2808 -4.9680 2.4802 -4.6294 -1.9475 3.6230 -0.5755 0.9907 1.7901 1.8203 3.6793 5.7563 -4.9038 -1.5698 8.6147 23.9760 -0.3546 4.4647 8.4766 0.0000 -0.0000 0.0000 -86.5571 16.8058 -3.6189 10.9124 -18.1539 -1.7485 -0.0000 -0.0000 31.3602 5.4691 25.9766 2.4014 -7.1250 0.0000 -0.0000 -25.5022 54.1817 -6.0552 0.0000 -0.0000 0.0000 89.6633 -16.7376 19.1305 -35.4245 45.1129 -15.1133 0.0000 0.0000 11.0287 -32.6422 15.0751 -9.4587 7.1250 -0.0000 -0.0000 -3.3686 -12.2647 -2.5807
3.9009 27.3887 -0.5755 161.1920 100.7040 182.5070 0.0000 0.0000 0.0000 -11.4457 -23.2008 -33.5132 2.4171 9.6857 27.9647 -0.4459 16.6520 -18.7343 1.1428 6.7885 19.0902 0.0000 0.0000 0.0000 12.8836 21.3370 -46.6927 -6.6066 -14.9915 47.3704 0.1415 6.7033 3.3227 -1.3466 7.3466 -20.7463 -4.8491 2.4913 -4.6846 -1.8989 3.6340 -0.5662 0.9785 1.7947 1.8643 3.7030 5.7452 -4.7481 -1.6137 8.6185 23.9712 -0.3782 4.4688 8.4498 0.0000 -0.0000 0.0000 -86.7698 16.8310 -4.1992 10.8416 -18.0450 -1.7265 -0.0000 -0.0000 31.7869 4.5236 26.1179 1.9947 -7.1250 0.0000 -0.0000 -26.4973 54.1340 -6.2858 0.0000 -0.0000 0.0000 89.7112 -16.6213 19.1080 -34.5970 44.5222 -14.5301 0.0000 0.0000 11.1734 -31.8189 14.9709 -9.1064 7.1250 -0.0000 -0.0000 -2.8356 -12.5272 -2.1557
3.8957 27.3879 -0.5736 160.7890 100.5390 182.1220 0.0000 0.0000 0.0000 -11.3998 -23.2033 -33.6080 2.4259 9.7019 28.0167 -0.4586 16.7140 -18.6833 1.1246 6.7361 18.9359 0.0000 0.0000 0.0000 13.0954 20.9865 -46.4656 -6.6633 -15.0417 47.5891 0.1236 6.2380 2.7795 -1.3369 7.3213 -20.6707 -4.8249 2.5152 -4.5274 -1.8863 3.6521 -0.6007 0.9698 1.8071 1.7405 3.3723 5.5996 -5.0205 -1.3618 8.4093 24.2187 -0.2458 4.3638 8.5506 -0.0000 0.0000 0.0000 -86.8914 16.9904 -4.1582 10.8932 -18.1243 -1.7425 -0.0000 -0.0000 31.4770 2.7723 26.7263 1.2475 -7.1250 0.0000 -0.0000 -28.5704 54.3473 -6.9952 -0.0000 0.0000 0.0000 89.6990 -16.5312 19.1971 -33.7853 43.9250 -13.9639 0.0000 0.0000 11.3104 -30.9494 14.5668 -8.5766 7.1250 -0.0000 -0.0000 -2.3039 -13.1329 -1.7216
3.8860 27.3891 -0.5704 160.7470 100.3860 182.0940 0.0000 0.0000 0.0000 -11.4202 -23.1687 -33.7373 2.4382 9.7246 28.0893 -0.4451 16.6304 -18.7058 1.1368 6.7712 19.0394 0.0000 0.0000 0.0000 13.1792 20.7465 -46.2610 -6.7284 -15.0988 47.8394 0.0986 5.5635 2.2654 -1.2405 7.0625 -19.9007 -4.9013 2.5939 -4.1933 -1.9055 3.7343 -0.7100 0.9752 1.8563 1.4331 2.8801 5.5102 -5.4470 -0.6242 8.1995 24.6691 0.0843 4.2907 8.7222 0.0000 -0.0000 0.0000 -86.8815 17.2511 -3.4694 11.0186 -18.3167 -1.7818 -0.0000 -0.0000 30.6077 1.1160 27.5057 0.5154 -7.1250 0.0000 -0.0000 -30.6879 54.7124 -7.8756 0.0000 -0.0000 0.0000 89.7373 -16.4745 19.2182 -33.0097 43.3375 -13.4287 0.0000 0.0000 11.4363 -29.9355 14.2018 -8.0414 7.1250 -0.0000 -0.0000 -1.6637 -13.7051 -1.2227
